<?xml version="1.0" encoding="utf-8"?>
<!-- Generator: Adobe Illustrator 18.0.0, SVG Export Plug-In . SVG Version: 6.00 Build 0)  -->
<!DOCTYPE svg PUBLIC "-//W3C//DTD SVG 1.1//EN" "http://www.w3.org/Graphics/SVG/1.1/DTD/svg11.dtd">
<svg version="1.1" id="Layer_1" xmlns="http://www.w3.org/2000/svg" xmlns:xlink="http://www.w3.org/1999/xlink" x="0px" y="0px"
	 viewBox="0 0 154.2 154.2" enable-background="new 0 0 154.2 154.2" xml:space="preserve">
<g>
	<g>
		<defs>
			<rect id="SVGID_5_" width="154.2" height="154.2"/>
		</defs>
		<clipPath id="SVGID_1_">
			<use xlink:href="#SVGID_5_"  overflow="visible"/>
		</clipPath>
		<g clip-path="url(#SVGID_1_)">
			<defs>
				<rect id="SVGID_7_" width="154.2" height="154.2"/>
			</defs>
			<clipPath id="SVGID_2_">
				<use xlink:href="#SVGID_7_"  overflow="visible"/>
			</clipPath>
			<path clip-path="url(#SVGID_2_)" fill="#010101" d="M38.6,0h77.1c21.4,0,38.6,17.2,38.6,38.6v77.1c0,21.4-17.2,38.6-38.6,38.6
				H38.6C17.2,154.2,0,137,0,115.7V38.6C0,17.2,17.2,0,38.6,0z"/>
			<path clip-path="url(#SVGID_2_)" fill="#FFFFFF" d="M86.8,15.7c0,5.3-4.3,9.6-9.6,9.6c-5.3,0-9.7-4.3-9.7-9.6
				c0-5.3,4.3-9.6,9.7-9.6C82.4,6,86.8,10.3,86.8,15.7z"/>
			<path clip-path="url(#SVGID_2_)" fill="#FFFFFF" d="M86.8,97.6c0,5.3-4.3,9.7-9.6,9.7c-5.3,0-9.7-4.3-9.7-9.7
				c0-5.3,4.3-9.6,9.7-9.6C82.4,88,86.8,92.3,86.8,97.6z"/>
			<path clip-path="url(#SVGID_2_)" fill="#FFFFFF" d="M38.6,56.6c0,5.3-4.3,9.6-9.6,9.6c-5.3,0-9.7-4.3-9.7-9.6
				c0-5.3,4.3-9.6,9.7-9.6C34.2,47,38.6,51.3,38.6,56.6z"/>
			<path clip-path="url(#SVGID_2_)" fill="#FFFFFF" d="M135,56.6c0,5.3-4.3,9.6-9.6,9.6c-5.3,0-9.7-4.3-9.7-9.6
				c0-5.3,4.3-9.6,9.7-9.6C130.6,47,135,51.3,135,56.6z"/>
			<path clip-path="url(#SVGID_2_)" fill="#FFFFFF" d="M86.8,56.6c0,5.3-4.3,9.6-9.6,9.6c-5.3,0-9.7-4.3-9.7-9.6
				c0-5.3,4.3-9.6,9.7-9.6C82.4,47,86.8,51.3,86.8,56.6z"/>
			<path clip-path="url(#SVGID_2_)" fill="#FFFFFF" d="M86.8,138.6c0,5.3-4.3,9.6-9.6,9.6c-5.3,0-9.7-4.3-9.7-9.6s4.3-9.6,9.7-9.6
				C82.4,128.9,86.8,133.3,86.8,138.6z"/>
			<path clip-path="url(#SVGID_2_)" fill="#FFFFFF" d="M38.6,97.6c0,5.3-4.3,9.7-9.6,9.7c-5.3,0-9.7-4.3-9.7-9.7
				c0-5.3,4.3-9.6,9.7-9.6C34.2,88,38.6,92.3,38.6,97.6z"/>
			<path clip-path="url(#SVGID_2_)" fill="#FFFFFF" d="M135,97.6c0,5.3-4.3,9.7-9.6,9.7c-5.3,0-9.7-4.3-9.7-9.7
				c0-5.3,4.3-9.6,9.7-9.6C130.6,88,135,92.3,135,97.6z"/>
			<line clip-path="url(#SVGID_2_)" fill="#010101" x1="77.1" y1="15.7" x2="77.1" y2="56.6"/>
			<line clip-path="url(#SVGID_2_)" fill="none" stroke="#FFFFFF" stroke-width="3.6151" x1="77.1" y1="15.7" x2="77.1" y2="56.6"/>
			<line clip-path="url(#SVGID_2_)" fill="#010101" x1="77.1" y1="97.6" x2="77.1" y2="138.6"/>
			
				<line clip-path="url(#SVGID_2_)" fill="none" stroke="#FFFFFF" stroke-width="3.6151" x1="77.1" y1="97.6" x2="77.1" y2="138.6"/>
			<line clip-path="url(#SVGID_2_)" fill="#010101" x1="28.9" y1="56.6" x2="28.9" y2="97.6"/>
			<line clip-path="url(#SVGID_2_)" fill="none" stroke="#FFFFFF" stroke-width="3.6151" x1="28.9" y1="56.6" x2="28.9" y2="97.6"/>
			<line clip-path="url(#SVGID_2_)" fill="#010101" x1="125.3" y1="56.6" x2="125.3" y2="97.6"/>
			
				<line clip-path="url(#SVGID_2_)" fill="none" stroke="#FFFFFF" stroke-width="3.6151" x1="125.3" y1="56.6" x2="125.3" y2="97.6"/>
			<line clip-path="url(#SVGID_2_)" fill="#010101" x1="77.1" y1="56.6" x2="125.3" y2="97.6"/>
			
				<line clip-path="url(#SVGID_2_)" fill="none" stroke="#FFFFFF" stroke-width="3.6151" x1="77.1" y1="56.6" x2="125.3" y2="97.6"/>
			<line clip-path="url(#SVGID_2_)" fill="#010101" x1="125.3" y1="97.6" x2="77.1" y2="138.6"/>
			
				<line clip-path="url(#SVGID_2_)" fill="none" stroke="#FFFFFF" stroke-width="3.6151" x1="125.3" y1="97.6" x2="77.1" y2="138.6"/>
			<line clip-path="url(#SVGID_2_)" fill="#010101" x1="77.1" y1="138.6" x2="28.9" y2="97.6"/>
			
				<line clip-path="url(#SVGID_2_)" fill="none" stroke="#FFFFFF" stroke-width="3.6151" x1="77.1" y1="138.6" x2="28.9" y2="97.6"/>
			<line clip-path="url(#SVGID_2_)" fill="#010101" x1="28.9" y1="97.6" x2="77.1" y2="56.6"/>
			<line clip-path="url(#SVGID_2_)" fill="none" stroke="#FFFFFF" stroke-width="3.6151" x1="28.9" y1="97.6" x2="77.1" y2="56.6"/>
			<line clip-path="url(#SVGID_2_)" fill="#010101" x1="77.1" y1="15.7" x2="125.3" y2="56.6"/>
			
				<line clip-path="url(#SVGID_2_)" fill="none" stroke="#FFFFFF" stroke-width="3.6151" x1="77.1" y1="15.7" x2="125.3" y2="56.6"/>
			<line clip-path="url(#SVGID_2_)" fill="#010101" x1="125.3" y1="56.6" x2="77.1" y2="97.6"/>
			
				<line clip-path="url(#SVGID_2_)" fill="none" stroke="#FFFFFF" stroke-width="3.6151" x1="125.3" y1="56.6" x2="77.1" y2="97.6"/>
			<line clip-path="url(#SVGID_2_)" fill="#010101" x1="77.1" y1="97.6" x2="28.9" y2="56.6"/>
			<line clip-path="url(#SVGID_2_)" fill="none" stroke="#FFFFFF" stroke-width="3.6151" x1="77.1" y1="97.6" x2="28.9" y2="56.6"/>
			<line clip-path="url(#SVGID_2_)" fill="#010101" x1="28.9" y1="56.6" x2="77.1" y2="15.7"/>
			<line clip-path="url(#SVGID_2_)" fill="none" stroke="#FFFFFF" stroke-width="3.6151" x1="28.9" y1="56.6" x2="77.1" y2="15.7"/>
			<line clip-path="url(#SVGID_2_)" fill="#010101" x1="125.3" y1="56.6" x2="86.8" y2="89.4"/>
			<line clip-path="url(#SVGID_2_)" fill="none" stroke="#010101" stroke-width="0.964" x1="125.3" y1="56.6" x2="86.8" y2="89.4"/>
			<path clip-path="url(#SVGID_2_)" fill="#010101" d="M125,56.9c-0.2-0.2-0.1-0.5,0.1-0.7c0.2-0.2,0.5-0.2,0.7,0
				c0.2,0.2,0.1,0.5-0.1,0.7C125.4,57.2,125.1,57.2,125,56.9z"/>
			<polygon clip-path="url(#SVGID_2_)" fill="#010101" points="87.7,90.5 84.6,91.2 85.9,88.3 			"/>
			<line clip-path="url(#SVGID_2_)" fill="#010101" x1="28.9" y1="56.6" x2="67.5" y2="89.4"/>
			<line clip-path="url(#SVGID_2_)" fill="none" stroke="#010101" stroke-width="0.964" x1="28.9" y1="56.6" x2="67.5" y2="89.4"/>
			<path clip-path="url(#SVGID_2_)" fill="#010101" d="M29.3,56.9c-0.2,0.2-0.5,0.2-0.7,0.1c-0.2-0.2-0.2-0.5-0.1-0.7
				c0.2-0.2,0.5-0.2,0.7,0C29.4,56.4,29.5,56.7,29.3,56.9z"/>
			<polygon clip-path="url(#SVGID_2_)" fill="#010101" points="68.4,88.3 69.6,91.2 66.5,90.5 			"/>
			<line clip-path="url(#SVGID_2_)" fill="#010101" x1="77.1" y1="138.6" x2="77.1" y2="109.9"/>
			
				<line clip-path="url(#SVGID_2_)" fill="none" stroke="#010101" stroke-width="0.964" x1="77.1" y1="138.6" x2="77.1" y2="109.9"/>
			<path clip-path="url(#SVGID_2_)" fill="#010101" d="M77.1,138.1c0.3,0,0.5,0.2,0.5,0.5c0,0.3-0.2,0.5-0.5,0.5
				c-0.3,0-0.5-0.2-0.5-0.5C76.6,138.3,76.9,138.1,77.1,138.1z"/>
			<polygon clip-path="url(#SVGID_2_)" fill="#010101" points="75.7,110 77.1,107.1 78.6,110 			"/>
			<path clip-path="url(#SVGID_2_)" fill="#010101" d="M79.5,97.6c0,1.3-1.1,2.4-2.4,2.4c-1.3,0-2.4-1.1-2.4-2.4
				c0-1.3,1.1-2.4,2.4-2.4C78.5,95.2,79.5,96.3,79.5,97.6z"/>
		</g>
	</g>
</g>
</svg>
