<?xml version="1.0" encoding="UTF-8" standalone="no"?>
<!-- Created with Inkscape (http://www.inkscape.org/) -->

<svg
   xmlns:dc="http://purl.org/dc/elements/1.1/"
   xmlns:cc="http://creativecommons.org/ns#"
   xmlns:rdf="http://www.w3.org/1999/02/22-rdf-syntax-ns#"
   xmlns:svg="http://www.w3.org/2000/svg"
   xmlns="http://www.w3.org/2000/svg"
   xmlns:sodipodi="http://sodipodi.sourceforge.net/DTD/sodipodi-0.dtd"
   xmlns:inkscape="http://www.inkscape.org/namespaces/inkscape"
   width="210mm"
   height="297mm"
   id="svg2"
   version="1.1"
   inkscape:version="0.48.3.1 r9886"
   sodipodi:docname="Neues Dokument 1">
  <defs
     id="defs4" />
  <sodipodi:namedview
     id="base"
     pagecolor="#ffffff"
     bordercolor="#666666"
     borderopacity="1.0"
     inkscape:pageopacity="0.0"
     inkscape:pageshadow="2"
     inkscape:zoom="0.7"
     inkscape:cx="46.99835"
     inkscape:cy="797.1797"
     inkscape:document-units="px"
     inkscape:current-layer="layer1"
     showgrid="false"
     inkscape:window-width="1440"
     inkscape:window-height="876"
     inkscape:window-x="0"
     inkscape:window-y="24"
     inkscape:window-maximized="1" />
  <metadata
     id="metadata7">
    <rdf:RDF>
      <cc:Work
         rdf:about="">
        <dc:format>image/svg+xml</dc:format>
        <dc:type
           rdf:resource="http://purl.org/dc/dcmitype/StillImage" />
        <dc:title></dc:title>
      </cc:Work>
    </rdf:RDF>
  </metadata>
  <g
     inkscape:label="Ebene 1"
     inkscape:groupmode="layer"
     id="layer1">
    <path
       sodipodi:type="arc"
       style="fill:none;stroke:#030000;stroke-width:3.4000001;stroke-linecap:round;stroke-miterlimit:4;stroke-opacity:1;stroke-dasharray:none;stroke-dashoffset:0"
       id="path2985"
       sodipodi:cx="151.42857"
       sodipodi:cy="256.64789"
       sodipodi:rx="31.428572"
       sodipodi:ry="32.857143"
       d="m 182.85715,256.64789 a 31.428572,32.857143 0 1 1 -62.85715,0 31.428572,32.857143 0 1 1 62.85715,0 z"
       transform="translate(0,-3.4999918)" />
    <path
       transform="translate(190.85714,-3.4999918)"
       sodipodi:type="arc"
       style="fill:none;stroke:#030000;stroke-width:3.4000001;stroke-linecap:round;stroke-miterlimit:4;stroke-opacity:1;stroke-dasharray:none;stroke-dashoffset:0"
       id="path2985-2"
       sodipodi:cx="151.42857"
       sodipodi:cy="256.64789"
       sodipodi:rx="31.428572"
       sodipodi:ry="32.857143"
       d="m 182.85715,256.64789 a 31.428572,32.857143 0 1 1 -62.85715,0 31.428572,32.857143 0 1 1 62.85715,0 z" />
    <path
       transform="translate(95.428575,-127.49999)"
       sodipodi:type="arc"
       style="fill:none;stroke:#030000;stroke-width:3.4000001;stroke-linecap:round;stroke-miterlimit:4;stroke-opacity:1;stroke-dasharray:none;stroke-dashoffset:0"
       id="path2985-5"
       sodipodi:cx="151.42857"
       sodipodi:cy="256.64789"
       sodipodi:rx="31.428572"
       sodipodi:ry="32.857143"
       d="m 182.85715,256.64789 a 31.428572,32.857143 0 1 1 -62.85715,0 31.428572,32.857143 0 1 1 62.85715,0 z" />
    <path
       style="fill:none;stroke:#000000;stroke-width:6.3;stroke-linecap:butt;stroke-linejoin:miter;stroke-opacity:1;stroke-miterlimit:4;stroke-dasharray:none"
       d="m 171.42857,225.21932 c 55.71429,-70 55.71429,-70 55.71429,-70"
       id="path3012"
       inkscape:connector-curvature="0" />
    <path
       style="fill:none;stroke:#000000;stroke-width:6.3;stroke-linecap:butt;stroke-linejoin:miter;stroke-miterlimit:4;stroke-opacity:1;stroke-dasharray:none"
       d="m 267.85714,154.50504 c 55.71429,70 55.71429,70 55.71429,70"
       id="path3012-3"
       inkscape:connector-curvature="0" />
    <text
       xml:space="preserve"
       style="font-size:18px;font-style:normal;font-variant:normal;font-weight:normal;font-stretch:normal;line-height:125%;letter-spacing:0px;word-spacing:0px;fill:#000000;fill-opacity:1;stroke:none;font-family:Arial;-inkscape-font-specification:Arial"
       x="58.57143"
       y="73.790756"
       id="text3807"
       sodipodi:linespacing="125%"><tspan
         sodipodi:role="line"
         id="tspan3809"
         x="58.57143"
         y="73.790756">Distributed</tspan></text>
    <path
       transform="translate(6.59852,456.84239)"
       sodipodi:type="arc"
       style="fill:none;stroke:#030000;stroke-width:3.4000001;stroke-linecap:round;stroke-miterlimit:4;stroke-opacity:1;stroke-dasharray:none;stroke-dashoffset:0"
       id="path2985-2-7"
       sodipodi:cx="151.42857"
       sodipodi:cy="256.64789"
       sodipodi:rx="31.428572"
       sodipodi:ry="32.857143"
       d="m 182.85715,256.64789 a 31.428572,32.857143 0 1 1 -62.85715,0 31.428572,32.857143 0 1 1 62.85715,0 z" />
    <path
       sodipodi:type="arc"
       style="fill:none;stroke:#030000;stroke-width:3.4000001;stroke-linecap:round;stroke-miterlimit:4;stroke-opacity:1;stroke-dasharray:none;stroke-dashoffset:0"
       id="path2985-3"
       sodipodi:cx="151.42857"
       sodipodi:cy="256.64789"
       sodipodi:rx="31.428572"
       sodipodi:ry="32.857143"
       d="m 182.85715,256.64789 a 31.428572,32.857143 0 1 1 -62.85715,0 31.428572,32.857143 0 1 1 62.85715,0 z"
       transform="translate(22.31281,303.69953)" />
    <path
       transform="translate(213.16995,303.69953)"
       sodipodi:type="arc"
       style="fill:none;stroke:#030000;stroke-width:3.4000001;stroke-linecap:round;stroke-miterlimit:4;stroke-opacity:1;stroke-dasharray:none;stroke-dashoffset:0"
       id="path2985-2-8"
       sodipodi:cx="151.42857"
       sodipodi:cy="256.64789"
       sodipodi:rx="31.428572"
       sodipodi:ry="32.857143"
       d="m 182.85715,256.64789 a 31.428572,32.857143 0 1 1 -62.85715,0 31.428572,32.857143 0 1 1 62.85715,0 z" />
    <path
       transform="translate(117.74138,179.69953)"
       sodipodi:type="arc"
       style="fill:none;stroke:#030000;stroke-width:3.4000001;stroke-linecap:round;stroke-miterlimit:4;stroke-opacity:1;stroke-dasharray:none;stroke-dashoffset:0"
       id="path2985-5-1"
       sodipodi:cx="151.42857"
       sodipodi:cy="256.64789"
       sodipodi:rx="31.428572"
       sodipodi:ry="32.857143"
       d="m 182.85715,256.64789 a 31.428572,32.857143 0 1 1 -62.85715,0 31.428572,32.857143 0 1 1 62.85715,0 z" />
    <path
       style="fill:none;stroke:#000000;stroke-width:6.3;stroke-linecap:butt;stroke-linejoin:miter;stroke-miterlimit:4;stroke-opacity:1;stroke-dasharray:none"
       d="m 193.74138,532.41884 c 55.71429,-70 55.71429,-70 55.71429,-70"
       id="path3012-5"
       inkscape:connector-curvature="0" />
    <path
       style="fill:none;stroke:#000000;stroke-width:6.3;stroke-linecap:butt;stroke-linejoin:miter;stroke-miterlimit:4;stroke-opacity:1;stroke-dasharray:none"
       d="m 290.16995,461.70456 c 55.71429,70 55.71429,70 55.71429,70"
       id="path3012-3-4"
       inkscape:connector-curvature="0" />
    <text
       xml:space="preserve"
       style="font-size:18px;font-style:normal;font-variant:normal;font-weight:normal;font-stretch:normal;line-height:125%;letter-spacing:0px;word-spacing:0px;fill:#000000;fill-opacity:1;stroke:none;font-family:Arial;-inkscape-font-specification:Arial"
       x="64.884232"
       y="380.9903"
       id="text3807-5"
       sodipodi:linespacing="125%"><tspan
         sodipodi:role="line"
         id="tspan3809-38"
         x="64.884232"
         y="380.9903">Single within Distributed</tspan></text>
    <text
       xml:space="preserve"
       style="font-size:18px;font-style:normal;font-variant:normal;font-weight:normal;font-stretch:normal;line-height:125%;letter-spacing:0px;word-spacing:0px;fill:#000000;fill-opacity:1;stroke:none;font-family:Arial;-inkscape-font-specification:Arial"
       x="44.133297"
       y="648.44897"
       id="text3807-5-2"
       sodipodi:linespacing="125%"><tspan
         sodipodi:role="line"
         id="tspan3809-38-6"
         x="44.133297"
         y="648.44897">Single</tspan><tspan
         sodipodi:role="line"
         x="44.133297"
         y="670.94897"
         id="tspan3887" /></text>
    <path
       style="fill:#000000;stroke:#030000;stroke-width:4.71428585000000044;stroke-linecap:round;stroke-miterlimit:4;stroke-opacity:1;stroke-dasharray:none;stroke-dashoffset:0;fill-opacity:1"
       d="m 149.9381,742.19373 c -8.61213,-3.06792 -12.56552,-6.57944 -16.98237,-15.08421 -15.24188,-29.34865 20.99952,-58.43391 44.35659,-35.59805 6.21108,6.07248 9.17583,13.19595 9.17583,22.04699 0,13.30785 -8.48556,25.01165 -20.78155,28.66317 -8.47564,2.51699 -8.62538,2.51672 -15.7685,-0.0279 l 0,-10e-6 z"
       id="path3889"
       inkscape:connector-curvature="0" />
    <path
       style="fill:#000000;stroke:#030000;stroke-width:4.71428585000000044;stroke-linecap:round;stroke-miterlimit:4;stroke-opacity:1;stroke-dasharray:none;stroke-dashoffset:0;fill-opacity:1"
       d="m 160.56978,586.82573 c -16.68592,-8.91975 -20.56658,-32.53017 -7.68946,-46.7836 9.82892,-10.87944 24.5102,-12.83217 36.36745,-4.83719 16.69543,11.25722 17.16337,36.75839 0.91174,49.68755 -7.63608,6.07497 -20.29477,6.90202 -29.58973,1.93324 z"
       id="path3891"
       inkscape:connector-curvature="0" />
    <path
       style="fill:none;stroke:#030000;stroke-width:4.71428585;stroke-linecap:round;stroke-miterlimit:4;stroke-opacity:1;stroke-dasharray:none;stroke-dashoffset:0"
       d="m 352.71264,587.66984 c -11.72176,-6.16866 -17.17197,-16.38605 -16.1652,-30.30455 1.75107,-24.2083 28.47799,-35.52075 46.51198,-19.68669 10.67368,9.37161 13.18346,23.292 6.58633,36.53073 -5.19781,10.43063 -13.69268,15.85253 -24.7128,15.7731 -4.36403,-0.0315 -9.86317,-1.07212 -12.22031,-2.31259 z"
       id="path3893"
       inkscape:connector-curvature="0" />
    <path
       style="fill:none;stroke:#030000;stroke-width:4.71428585;stroke-linecap:round;stroke-miterlimit:4;stroke-opacity:1;stroke-dasharray:none;stroke-dashoffset:0"
       d="m 261.61043,465.33195 c -26.77685,-8.5525 -28.20373,-46.47946 -2.15796,-57.3594 17.9924,-7.51586 38.19742,7.55728 38.19742,28.49564 0,19.64688 -18.50218,34.46514 -36.03946,28.86376 l 0,0 z"
       id="path3895"
       inkscape:connector-curvature="0" />
    <path
       style="fill:#000000;stroke:#030000;stroke-width:4.71428585000000044;stroke-linecap:round;stroke-miterlimit:4;stroke-opacity:1;stroke-dasharray:none;stroke-dashoffset:0;fill-opacity:1"
       d="m 329.00876,279.57157 c -8.07109,-4.26262 -14.31808,-14.02521 -15.26225,-23.85131 -2.35171,-24.4748 24.82663,-41.39351 44.37487,-27.62365 11.21952,7.90306 15.70219,24.24737 10.23736,37.32654 -6.50567,15.57026 -24.44483,22.02034 -39.34998,14.14842 z"
       id="path3897"
       inkscape:connector-curvature="0" />
    <path
       style="fill:none;stroke:#030000;stroke-width:4.71428585;stroke-linecap:round;stroke-miterlimit:4;stroke-opacity:1;stroke-dasharray:none;stroke-dashoffset:0"
       d=""
       id="path3899"
       inkscape:connector-curvature="0" />
    <path
       style="fill:none;stroke:#030000;stroke-width:4.71428585;stroke-linecap:round;stroke-miterlimit:4;stroke-opacity:1;stroke-dasharray:none;stroke-dashoffset:0"
       d=""
       id="path3901"
       inkscape:connector-curvature="0" />
    <path
       style="fill:#000000;stroke:#030000;stroke-width:4.71428585000000044;stroke-linecap:round;stroke-miterlimit:4;stroke-opacity:1;stroke-dasharray:none;stroke-dashoffset:0;fill-opacity:1"
       d="m 241.08149,158.67314 c -12.39837,-2.9463 -21.55692,-13.96018 -22.86315,-27.49472 -1.44737,-14.997 10.51917,-30.01724 25.52336,-32.036562 5.60006,-0.753678 8.09502,-0.246239 14.71571,2.992962 9.01777,4.41199 13.88305,10.61998 16.45272,20.99333 4.92365,19.87605 -14.3859,40.1653 -33.82864,35.54499 l 0,0 z"
       id="path3903"
       inkscape:connector-curvature="0" />
    <path
       style="fill:#000000;stroke:#030000;stroke-width:4.71428585000000044;stroke-linecap:round;stroke-miterlimit:4;stroke-opacity:1;stroke-dasharray:none;stroke-dashoffset:0;fill-opacity:1"
       d="m 139.85549,280.6502 c -23.11146,-12.02005 -22.4775,-45.71405 1.04504,-55.54239 9.70643,-4.05561 21.59033,-1.89617 29.48167,5.35714 4.46218,4.1014 10.15804,16.26983 10.16566,21.71753 0.016,11.48203 -8.29321,24.66485 -18.14648,28.78982 -6.16239,2.57981 -17.27142,2.4211 -22.54589,-0.3221 z"
       id="path3905"
       inkscape:connector-curvature="0" />
  </g>
</svg>
