<?xml version="1.0" encoding="UTF-8" standalone="no"?>
<!-- Created with Inkscape (http://www.inkscape.org/) -->

<svg
   xmlns:dc="http://purl.org/dc/elements/1.1/"
   xmlns:cc="http://creativecommons.org/ns#"
   xmlns:rdf="http://www.w3.org/1999/02/22-rdf-syntax-ns#"
   xmlns:svg="http://www.w3.org/2000/svg"
   xmlns="http://www.w3.org/2000/svg"
   xmlns:xlink="http://www.w3.org/1999/xlink"
   xmlns:sodipodi="http://sodipodi.sourceforge.net/DTD/sodipodi-0.dtd"
   xmlns:inkscape="http://www.inkscape.org/namespaces/inkscape"
   version="1.1"
   width="1024"
   height="1024"
   id="svg2"
   inkscape:version="0.48.2 r9819"
   sodipodi:docname="repository_remote.svg">
  <sodipodi:namedview
     pagecolor="#ffffff"
     bordercolor="#666666"
     borderopacity="1"
     objecttolerance="10"
     gridtolerance="10"
     guidetolerance="10"
     inkscape:pageopacity="0"
     inkscape:pageshadow="2"
     inkscape:window-width="1280"
     inkscape:window-height="726"
     id="namedview3043"
     showgrid="false"
     inkscape:zoom="0.49609375"
     inkscape:cx="254.99213"
     inkscape:cy="466.76705"
     inkscape:window-x="0"
     inkscape:window-y="0"
     inkscape:window-maximized="1"
     inkscape:current-layer="svg2" />
  <defs
     id="defs4">
    <linearGradient
       id="linearGradient5399">
      <stop
         style="stop-color:#666666;stop-opacity:1;"
         offset="0"
         id="stop5401" />
      <stop
         style="stop-color:#b4b4b4;stop-opacity:0;"
         offset="1"
         id="stop5403" />
    </linearGradient>
    <linearGradient
       id="linearGradient5359">
      <stop
         style="stop-color:#595959;stop-opacity:1;"
         offset="0"
         id="stop5387" />
      <stop
         style="stop-color:#4d4d4d;stop-opacity:0;"
         offset="1"
         id="stop5363" />
    </linearGradient>
    <linearGradient
       id="linearGradient5327">
      <stop
         style="stop-color:#4d4d4d;stop-opacity:1;"
         offset="0"
         id="stop5329" />
      <stop
         style="stop-color:#4d4d4d;stop-opacity:0;"
         offset="1"
         id="stop5331" />
    </linearGradient>
    <inkscape:path-effect
       effect="skeletal"
       id="path-effect3055"
       is_visible="true"
       pattern="M 0,5 C 0,2.24 2.24,0 5,0 7.76,0 10,2.24 10,5 10,7.76 7.76,10 5,10 2.24,10 0,7.76 0,5 z"
       copytype="single_stretched"
       prop_scale="1"
       scale_y_rel="false"
       spacing="0"
       normal_offset="0"
       tang_offset="0"
       prop_units="false"
       vertical_pattern="false"
       fuse_tolerance="0" />
    <inkscape:path-effect
       effect="skeletal"
       id="path-effect3051"
       is_visible="true"
       pattern="M 0,5 C 0,2.24 2.24,0 5,0 7.76,0 10,2.24 10,5 10,7.76 7.76,10 5,10 2.24,10 0,7.76 0,5 z"
       copytype="single_stretched"
       prop_scale="1"
       scale_y_rel="false"
       spacing="0"
       normal_offset="0"
       tang_offset="0"
       prop_units="false"
       vertical_pattern="false"
       fuse_tolerance="0" />
    <inkscape:path-effect
       effect="skeletal"
       id="path-effect3047"
       is_visible="true"
       pattern="M 0,5 C 0,2.24 2.24,0 5,0 7.76,0 10,2.24 10,5 10,7.76 7.76,10 5,10 2.24,10 0,7.76 0,5 z"
       copytype="single_stretched"
       prop_scale="1"
       scale_y_rel="false"
       spacing="0"
       normal_offset="0"
       tang_offset="0"
       prop_units="false"
       vertical_pattern="false"
       fuse_tolerance="0" />
    <linearGradient
       inkscape:collect="always"
       xlink:href="#linearGradient5399"
       id="linearGradient5405"
       x1="210.56163"
       y1="185.47536"
       x2="422.45132"
       y2="522.89575"
       gradientUnits="userSpaceOnUse"
       gradientTransform="translate(162.35403,55.383283)" />
  </defs>
  <metadata
     id="metadata7">
    <rdf:RDF>
      <cc:Work
         rdf:about="">
        <dc:format>image/svg+xml</dc:format>
        <dc:type
           rdf:resource="http://purl.org/dc/dcmitype/StillImage" />
        <dc:title />
      </cc:Work>
    </rdf:RDF>
  </metadata>
  <path
     id="rect3057"
     style="fill:none;stroke:#000000"
     d="m 346.44342,211.92105 c -43.57844,98.33924 -63.35131,189.46811 -61.34711,291.42124 2.00419,101.95313 18.33819,212.22102 53.96444,305.68658 60.42187,0 122.62692,26.45034 176.51051,26.74753 53.88359,0.2972 119.65497,-19.61485 180.07684,-19.61485 23.77558,-91.76444 43.68763,-207.60165 43.39044,-310.3623 -0.29719,-102.76064 -27.93631,-211.46518 -44.57922,-296.09695 -60.38021,0.36979 -126.70431,-21.84722 -183.51818,-21.47743 -56.81387,0.36979 -104.11751,23.32639 -164.49772,23.69618 z"
     inkscape:connector-curvature="0" />
  <use
     x="0"
     y="0"
     xlink:href="#rect3057"
     id="use5284"
     transform="matrix(0.83839126,0,0,0.88462667,82.743678,59.071144)"
     width="744.09448"
     height="1052.3622" />
  <path
     style="fill:#000000;fill-opacity:1;stroke:#000000;stroke-width:1.31287324"
     d="m 495.8143,833.01995 c -15.12719,-1.59757 -30.87731,-4.48041 -63.98147,-11.71096 -38.18646,-8.3406 -58.75416,-11.73619 -76.99151,-12.71076 l -14.70126,-0.78561 -5.40976,-15.23454 c -28.80575,-81.1204 -45.44186,-179.73612 -48.07373,-284.97203 -2.34192,-93.64174 13.40669,-178.40481 49.97848,-268.9971 11.74118,-29.08419 9.73197,-26.45735 20.23667,-26.45735 15.97791,0 33.42916,-2.72457 79.16322,-12.35932 37.98103,-8.00143 53.26835,-10.0158 76.07691,-10.02449 23.92068,-0.009 33.18589,1.04237 87.83998,9.96858 24.18969,3.95071 51.07077,7.80707 59.73573,8.56968 8.66497,0.76261 19.86596,1.79214 24.89108,2.28784 l 9.1366,0.90127 2.82311,13.78517 c 33.52144,163.68416 38.85361,198.93728 40.80764,269.79545 2.35563,85.42198 -14.02041,209.19404 -41.61497,314.53075 l -1.22933,4.69265 -21.34567,1.58989 c -11.74014,0.87445 -43.20504,4.81129 -69.92201,8.74854 -66.49757,9.7997 -82.31311,11.03384 -107.41971,8.38234 l 0,0 z"
     id="path5297"
     inkscape:connector-curvature="0" />
  <path
     style="fill:#ffffff;fill-opacity:1;stroke:#000000;stroke-width:1.31299996;stroke-miterlimit:4;stroke-dasharray:none"
     d="m 531.2649,798.23941 c 9.4676,-0.72227 36.05329,-4.28262 59.0793,-7.9119 23.02601,-3.62928 49.06232,-6.96494 57.85845,-7.41258 8.79614,-0.44763 16.69139,-1.24552 17.54501,-1.77309 4.08647,-2.52557 22.2276,-95.14141 28.78235,-146.94248 12.07819,-95.45185 11.52345,-163.15496 -2.04442,-249.50833 -3.71343,-23.63431 -24.23898,-132.51142 -26.29723,-139.49279 -0.55037,-1.86678 -2.19914,-2.29822 -8.79435,-2.30122 -12.00521,-0.005 -27.0466,-2.04089 -74.41708,-10.07018 -33.48314,-5.6754 -46.90773,-7.38498 -62.36148,-7.94158 -24.17254,-0.87061 -33.45632,0.28864 -76.39955,9.53992 -29.33777,6.32024 -40.60523,8.14204 -65.39076,10.5728 l -6.56437,0.64378 -6.87413,17.33792 c -33.93912,85.60109 -47.87601,168.12618 -43.8678,259.75615 3.95064,90.31401 16.44476,166.13945 38.42053,233.17011 l 6.56392,20.02132 7.57348,0 c 12.59088,0 34.43756,3.61779 71.04847,11.76557 31.93962,7.10819 47.08653,9.835 61.04861,10.99024 2.88832,0.23898 5.84228,0.53239 6.56436,0.65202 0.72208,0.1196 9.05909,-0.37343 18.52669,-1.09568 z"
     id="path5287"
     inkscape:connector-curvature="0" />
  <g
     inkscape:groupmode="layer"
     id="layer4"
     inkscape:label="Ebene"
     transform="translate(0,-28.362183)" />
  <g
     inkscape:groupmode="layer"
     id="layer5"
     inkscape:label="fläche"
     transform="translate(0,-28.362183)" />
  <path
     id="path5355"
     d="m 531.2649,798.23941 c 9.4676,-0.72227 36.05329,-4.28262 59.0793,-7.9119 23.02601,-3.62928 49.06232,-6.96494 57.85845,-7.41258 8.79614,-0.44763 16.69139,-1.24552 17.54501,-1.77309 4.08647,-2.52557 22.2276,-95.14141 28.78235,-146.94248 12.07819,-95.45185 11.52345,-163.15496 -2.04442,-249.50833 -3.71343,-23.63431 -24.23898,-132.51142 -26.29723,-139.49279 -0.55037,-1.86678 -2.19914,-2.29822 -8.79435,-2.30122 -12.00521,-0.005 -27.0466,-2.04089 -74.41708,-10.07018 -33.48314,-5.6754 -46.90773,-7.38498 -62.36148,-7.94158 -24.17254,-0.87061 -33.45632,0.28864 -76.39955,9.53992 -29.33777,6.32024 -40.60523,8.14204 -65.39076,10.5728 l -6.56437,0.64378 -6.87413,17.33792 c -33.93912,85.60109 -47.87601,168.12618 -43.8678,259.75615 3.95064,90.31401 16.44476,166.13945 38.42053,233.17011 l 6.56392,20.02132 7.57348,0 c 12.59088,0 34.43756,3.61779 71.04847,11.76557 31.93962,7.10819 47.08653,9.835 61.04861,10.99024 2.88832,0.23898 5.84228,0.53239 6.56436,0.65202 0.72208,0.1196 9.05909,-0.37343 18.52669,-1.09568 z"
     style="fill:url(#linearGradient5405);fill-opacity:1;stroke:#000000;stroke-width:1.31299996;stroke-miterlimit:4;stroke-dasharray:none"
     inkscape:connector-curvature="0" />
</svg>
